<svg xmlns="http://www.w3.org/2000/svg" xmlns:xlink="http://www.w3.org/1999/xlink" viewBox="0 0 1097.93 548.39"><defs><style>.a{fill:url(#a);}</style><radialGradient id="a" cx="548.97" cy="274.2" fx="509.4133921879402" fy="685.3263975400732" r="584.25" gradientUnits="userSpaceOnUse"><stop offset="0" stop-color="#2fa34d"/><stop offset="0.56" stop-color="#155a2e"/><stop offset="0.86" stop-color="#093820"/></radialGradient></defs><path class="a" d="M1093.15,321.09c-13.9-19.66-52.69-11-109.09,5-2.79-11.35-1.53-24.67.7-48.19.14-1.42.28-2.86.42-4.33a10.27,10.27,0,0,0,.7.78,12.58,12.58,0,0,0,9,3.71c9.37,0,22.81-10.89,24.31-12.13,7.88-6.52,17.93-17.47,21-32.58,3.38-16.65-2.5-35.28-16.57-52.49-11.61-14.2-30.23-28.54-45.66-28.54a20.75,20.75,0,0,0-9.35,2.1c-11.42,5.71-17.15,21.42-19.79,54.22-.93,11.65-1.34,24.14-1.5,36.09l-1.16-2.14c-11.22-20.62-21.72-26.09-30.51-28.72a35.81,35.81,0,0,0-10.32-1.47c-14.38,0-28.3,7.85-34.08,15.25-4.12,5.25-4.07,10-3.31,13.11a13.5,13.5,0,0,0,10,9.81,23.07,23.07,0,0,0,6,.63l2.31,0c.78,0,1.62,0,2.51,0a24.16,24.16,0,0,1,9,1.36c.91.77,5.06,4.87,13.23,20.34,6,11.31,12.73,26.19,19,41.91,3.51,8.77,6.53,16.87,9.09,24.22-27.89,7.89-58.71,16.17-91.9,23.16-3,.63-7,1.46-12,2.44a83.48,83.48,0,0,0,8.82-15.1c6.15-13.77,7-27.07,2.59-38.45-4.7-12-16-23-32-30.77a113.39,113.39,0,0,0-49-11.23c-21,0-39.52,6.08-53.5,17.59-17.59,14.48-28,37.6-29.41,65.1a126.59,126.59,0,0,0,2.4,31.39,1142.88,1142.88,0,0,1-118.72.82C561.5,377.6,556.52,371,552,364.8a79.1,79.1,0,0,0,16.39,1.93c7.73,0,14.49-1.59,20.09-4.72,13.14-7.36,22.32-23.78,25.19-45.05,3-22.33-1.13-53.43-21.76-73.78-15.45-15.24-29.52-18.44-38.6-18.44a39.64,39.64,0,0,0-6.07.47c-13.51,2.11-23.64,9.13-31.09,16.78-5.95-23.76-17.44-51.35-33.42-72.09-4.76-6.18-12.8-9.31-23.9-9.31A82.65,82.65,0,0,0,444.43,162c-4.39.8-8.16,1.79-10.69,2.52-14.6,4.23-18.15,8.44-19.32,9.82a13,13,0,0,0-3.05,10.7,12.15,12.15,0,0,0,12.11,10.06,31.42,31.42,0,0,0,3.55-.28,81,81,0,0,1,9.19-.63c8.59,0,11.08,2.08,11.49,2.5,3.26,3.3,14.7,19.82,24.86,93.69,2.68,19.48,3,35.77,3.34,56.39.15,8.58.32,18.15.68,29-18.57-2.53-37.39-5.65-56.35-9.45q-1.12-5.83-2.83-11.69a144.49,144.49,0,0,0-25.67-49.39c-18.42-23-41.2-36.21-62.49-36.21-1.46,0-2.94.07-4.38.19-18,1.54-35.87,12.79-50.25,31.67a123.82,123.82,0,0,0-11.15,17.62c-36.81-15.18-68.7-31-96.34-44.77-1.43-7-2.73-13.89-4.13-21.58-5-27.23-.08-35.07,1.08-35.48a2.1,2.1,0,0,1,.77-.15c1.63,0,4.87,1.55,8,3a92.42,92.42,0,0,0,11.07,4.66,65.55,65.55,0,0,0,20.7,3.22c14.2,0,29.85-4.16,45.25-12a137.84,137.84,0,0,0,36.46-27.09c8.62-9.1,15.11-20.77,19.3-34.67a125.67,125.67,0,0,0,4.85-42c-1.55-31.46-14-61-34-81.08C256.1,10.31,229,0,196,0c-35.74,0-68.1,12.49-77.16,16.32-43,18.17-72.72,51.87-90,76.93a278.32,278.32,0,0,0-21,35.91C5.63,133.63.54,144.47.07,148.62A12.08,12.08,0,0,0,5,159.76l.08.06.08.05L8.25,162H12c6.65,0,9.72-4.85,10.87-6.67a110.91,110.91,0,0,1,32-32.73C70.34,112.32,85,105.93,93.22,105.93a7.43,7.43,0,0,1,3,.45c.28.66,1,3,.63,9-.36,6.21-1.69,14.08-3.1,22.42-3.2,19-6.84,40.42-3.09,60.73,2.92,15.85,6.06,30.5,9.33,44.07C72,232.07,51,230.23,35.15,244.09c-33.34,29.18-21.22,108.27-4.5,152.5,0,0,18.13,47.48,59,84,83.08,74.24,237.51,74.48,476,61,342.36-19.35,430.71-42.83,489.5-115.5C1078.15,397.66,1110.13,345.1,1093.15,321.09Z"/></svg>