<svg xmlns="http://www.w3.org/2000/svg" viewBox="0 0 1017.16 475.71"><defs><style>.a{fill:#dccdbb;}</style></defs><path class="a" d="M148.05,193.39c9.13-3.26,16.37,3.72,27.65,7.46,29.91,9.93,68.44-10,89.92-32.74,29.85-31.54,29.06-102.29-9.66-141C205.82-23,122.29,10.82,111.5,15.37,32.79,48.6-.52,137.62,0,138a123.06,123.06,0,0,1,36.24-37.38c5.21-3.48,39.38-26.24,54.81-16.12,16.51,10.82-7.85,60.62-.63,99.81C120.22,346,174.72,382.86,138.8,422.83,125.2,438,103.4,438.15,104.32,442c1.49,6.24,60.32,9,76.63-17.91,8.57-14.14-1.48-26.78-17.26-81.25-15.4-53.18-19.27-71.79-24.49-100.5C137.21,231.41,132.15,199.07,148.05,193.39Zm1.18-91.66c-.64-29.3-2.41-72.7,49.76-71.28,43.1,1.17,68.77,46,56.57,86.09C246,148,213,166.85,190.06,164.41,136.29,158.71,149.82,128.73,149.23,101.73Z"/><path class="a" d="M313.9,269.19c-37.8,3.23-73.21,62.36-63.58,114.22,7.37,39.65,42.78,84.19,83.53,79.91,33.44-3.51,56.27-38.41,62.54-66.37C409.72,337.51,358,265.42,313.9,269.19Zm65.61,112.09c-2.6,22.88-21.18,50.73-45.17,52.16-27.25,1.61-49.13-31.59-53-58-4.2-28.83,10.82-65.17,33.84-69.43C342.9,300.86,384,341.83,379.51,381.28Z"/><path class="a" d="M616.92,404.58c-3,.35,2.66,28.51-7.53,33.12-12.12,5.48-38.29-26.15-49.35-39.51-13.71-16.58-39.3-49.7-46.17-63.62-3.51-7.12,36.35,16.4,56.77,5,23.66-13.25,29.05-72,.87-99.81-3.26-3.22-17.57-17.29-34.39-14.66-29.56,4.62-40,41.46-40.38,33.84-1-22.32-13-64.49-35.49-93.69-8.84-11.47-50.78,1.46-50,5.83.11.65,23.3-4.65,33,5.21,12,12.14,21.43,51.19,28.21,100.49,4.1,29.78,2.79,51.63,4.31,91.81,1.47,38.76-2.06,70.78-18.59,90.36-5.68,6.73-13.23,10.9-11.92,13.94,2,4.65,23.79,4.53,36.3-7.17,12.08-11.31,20.76-32,23.85-49.06,4.63-25.56-2.49-39.05,1.27-41.09,5.26-2.85,20.32,23.5,51,51,10.52,9.44,50.9,45.62,65,36.13C637.35,453.35,621,404.13,616.92,404.58ZM542.41,255.73c19.48.29,38,44,26.15,57.22-9.71,10.83-45.73,7.53-53.18-14.63C508.81,278.79,528.06,255.51,542.41,255.73Z"/><path class="a" d="M816.84,427.79c-10.48,2.07-30.14,5.95-53.41-1.61-11.37-3.69-37.66-12.23-51.3-37.44-15.34-28.35-8.43-66.25,14.06-83.75,24-18.63,64.38-13.19,72.11,2.42,6.54,13.2-9.53,35.16-24.44,46.56-24.77,18.94-53.94,14.5-53.52,17.81s29.39,12.44,56.11,2.43c30.28-11.35,56.34-46.83,46.94-70.86-11.5-29.4-79.13-49.58-115.65-19.52s-32,101.82,4.5,138.5C746.37,456.67,795.15,446.74,803,445c29.28-6.63,49.16-26.86,48.1-28.7C850.26,414.94,838.27,423.56,816.84,427.79Z"/><path class="a" d="M962,153.12c-19.59,9.8-13.48,114.69-14.84,132.55a493.19,493.19,0,0,0-23.52-49.38c-10-18.35-18.1-21.37-23.41-23-15.28-4.57-33.65,8.33-32.61,12.52.79,3.19,12.22-1.1,23.36,3.81,17.16,7.56,61.76,120.5,59.23,142.46-1.3,11.36-20.64,25.62-19.23,28.37,1.56,3,10.47-1.28,27.17-7.69,3.73-1.43,10.94-8.14,14-18.16,4.78-15.52-.57-31.05-8-47.11-10.44-22.46-4.08-42.54,0-102.22,2.1-30.65,3.57-37.21,8-38.66,8.88-2.92,27.52,15.55,27.69,34.1.16,18.87-18.84,31.68-17.4,33.14,1.64,1.66,29.36-11.91,34-35C1023.43,184.63,976,146.12,962,153.12Z"/></svg>